<svg width="574" height="534" viewBox="0 0 574 534" fill="none" xmlns="http://www.w3.org/2000/svg">
<g clip-path="url(#clip0_64_5)">
<path d="M360.333 253.667L133.667 213.667V509.227C133.667 522.725 144.609 533.667 158.107 533.667H549.227C562.725 533.667 573.667 522.725 573.667 509.227V400.333L360.333 253.667Z" fill="#185C37"/>
<path d="M360.333 0.333313H158.107C144.609 0.333313 133.667 11.2754 133.667 24.7733V133.667L360.333 267L480.333 307L573.667 267V133.667L360.333 0.333313Z" fill="#21A366"/>
<path d="M133.667 133.667H360.333V267H133.667V133.667Z" fill="#107C41"/>
<path opacity="0.1" d="M295.893 107H133.667V440.333H295.893C309.373 440.29 320.29 429.373 320.333 415.893V131.44C320.29 117.96 309.373 107.044 295.893 107Z" fill="black"/>
<path opacity="0.2" d="M282.56 120.333H133.667V453.667H282.56C296.04 453.623 306.956 442.706 307 429.227V144.773C306.956 131.294 296.04 120.377 282.56 120.333Z" fill="black"/>
<path opacity="0.2" d="M282.56 120.333H133.667V427H282.56C296.04 426.956 306.956 416.04 307 402.56V144.773C306.956 131.294 296.04 120.377 282.56 120.333Z" fill="black"/>
<path opacity="0.2" d="M269.227 120.333H133.667V427H269.227C282.706 426.956 293.623 416.04 293.667 402.56V144.773C293.623 131.294 282.706 120.377 269.227 120.333Z" fill="black"/>
<path d="M24.7732 120.333H269.226C282.724 120.333 293.666 131.275 293.666 144.773V389.226C293.666 402.724 282.724 413.666 269.226 413.666H24.7732C11.2753 413.667 0.333252 402.725 0.333252 389.227V144.773C0.333252 131.275 11.2753 120.333 24.7732 120.333Z" fill="url(#paint0_linear_64_5)"/>
<path d="M76.0266 346.44L127.44 266.773L80.3333 187.547H118.227L143.933 238.213C146.307 243.027 147.933 246.6 148.813 248.96H149.147C150.808 245.177 152.587 241.446 154.48 237.773L181.96 187.573H216.746L168.44 266.333L217.973 346.44H180.96L151.267 290.827C149.868 288.461 148.681 285.975 147.72 283.4H147.28C146.41 285.923 145.256 288.338 143.84 290.6L113.267 346.44H76.0266Z" fill="white"/>
<path d="M549.227 0.333313H360.333V133.667H573.667V24.7733C573.667 11.2754 562.725 0.333313 549.227 0.333313Z" fill="#33C481"/>
<path d="M360.333 267H573.667V400.333H360.333V267Z" fill="#107C41"/>
</g>
<defs>
<linearGradient id="paint0_linear_64_5" x1="51.2911" y1="101.236" x2="242.709" y2="432.764" gradientUnits="userSpaceOnUse">
<stop stop-color="#18884F"/>
<stop offset="0.5" stop-color="#117E43"/>
<stop offset="1" stop-color="#0B6631"/>
</linearGradient>
<clipPath id="clip0_64_5">
<rect width="574" height="534" fill="white"/>
</clipPath>
</defs>
</svg>
