<svg width="574" height="534" viewBox="0 0 574 534" fill="none" xmlns="http://www.w3.org/2000/svg">
<g clip-path="url(#clip0_64_17)">
<path d="M549.226 0.333328H158.107C144.609 0.333328 133.667 11.2755 133.667 24.7734V133.667L360.333 200.333L573.667 133.667V24.7734C573.667 11.2755 562.724 0.333328 549.226 0.333328Z" fill="#41A5EE"/>
<path d="M573.667 133.667H133.667V267L360.333 307L573.667 267V133.667Z" fill="#2B7CD3"/>
<path d="M133.667 267V400.333L347 427L573.667 400.333V267H133.667Z" fill="#185ABD"/>
<path d="M158.107 533.667H549.227C562.725 533.667 573.667 522.724 573.667 509.227V400.333H133.667V509.227C133.667 522.724 144.609 533.667 158.107 533.667Z" fill="#103F91"/>
<path opacity="0.1" d="M295.893 107H133.667V440.333H295.893C309.373 440.289 320.289 429.373 320.333 415.893V131.44C320.289 117.96 309.373 107.044 295.893 107Z" fill="black"/>
<path opacity="0.2" d="M282.56 120.333H133.667V453.667H282.56C296.039 453.623 306.956 442.706 307 429.227V144.773C306.956 131.294 296.039 120.377 282.56 120.333Z" fill="black"/>
<path opacity="0.2" d="M282.56 120.333H133.667V427H282.56C296.039 426.956 306.956 416.04 307 402.56V144.773C306.956 131.294 296.039 120.377 282.56 120.333Z" fill="black"/>
<path opacity="0.2" d="M269.226 120.333H133.667V427H269.226C282.706 426.956 293.623 416.04 293.667 402.56V144.773C293.623 131.294 282.706 120.377 269.226 120.333Z" fill="black"/>
<path d="M24.7733 120.333H269.227C282.724 120.333 293.667 131.275 293.667 144.773V389.227C293.667 402.725 282.724 413.667 269.227 413.667H24.7733C11.2754 413.667 0.333252 402.725 0.333252 389.227V144.773C0.333252 131.275 11.2754 120.333 24.7733 120.333Z" fill="url(#paint0_linear_64_17)"/>
<path d="M100.627 307.774C101.107 311.547 101.427 314.827 101.573 317.64H102.133C102.346 314.973 102.791 311.76 103.466 308C104.142 304.24 104.751 301.062 105.293 298.467L131 187.56H164.24L190.907 296.8C192.456 303.593 193.565 310.478 194.227 317.413H194.667C195.164 310.694 196.09 304.014 197.44 297.413L218.707 187.507H248.96L211.6 346.44H176.253L150.92 241.187C150.187 238.16 149.347 234.2 148.427 229.333C147.507 224.467 146.933 220.907 146.707 218.667H146.267C145.973 221.253 145.4 225.093 144.547 230.187C143.693 235.28 143.009 239.049 142.493 241.493L118.68 346.413H82.7329L45.1731 187.56H75.9729L99.133 298.693C99.6533 300.973 100.147 304.013 100.627 307.774Z" fill="white"/>
</g>
<defs>
<linearGradient id="paint0_linear_64_17" x1="51.2913" y1="101.236" x2="242.709" y2="432.764" gradientUnits="userSpaceOnUse">
<stop stop-color="#2368C4"/>
<stop offset="0.5" stop-color="#1A5DBE"/>
<stop offset="1" stop-color="#1146AC"/>
</linearGradient>
<clipPath id="clip0_64_17">
<rect width="574" height="534" fill="white"/>
</clipPath>
</defs>
</svg>
